<svg width="21" height="21" viewBox="0 0 21 21" fill="none" xmlns="http://www.w3.org/2000/svg">
<path d="M12.25 11.375C11.7668 11.375 11.375 11.7667 11.375 12.25V14.875C11.375 15.3582 11.7668 15.75 12.25 15.75H14.875C15.3583 15.75 15.75 15.3582 15.75 14.875V12.25C15.75 11.7667 15.3583 11.375 14.875 11.375H12.25Z" fill="#005151"/>
<path fill-rule="evenodd" clip-rule="evenodd" d="M15.75 2.62499C15.75 2.14174 15.3583 1.74999 14.875 1.74999C14.3918 1.74999 14 2.14174 14 2.62499V3.49999H7.00001V2.62499C7.00001 2.14174 6.60826 1.74999 6.12501 1.74999C5.64176 1.74999 5.25001 2.14174 5.25001 2.62499V3.49999H4.37501C2.92526 3.49999 1.75001 4.67525 1.75001 6.12499V16.625C1.75001 18.0747 2.92526 19.25 4.37501 19.25H16.625C18.0748 19.25 19.25 18.0747 19.25 16.625V6.12499C19.25 4.67525 18.0748 3.49999 16.625 3.49999H15.75V2.62499ZM4.37501 5.24999C3.89176 5.24999 3.50001 5.64174 3.50001 6.12499V6.99999H17.5V6.12499C17.5 5.64174 17.1083 5.24999 16.625 5.24999H4.37501ZM3.50001 16.625V8.74999H17.5V16.625C17.5 17.1082 17.1083 17.5 16.625 17.5H4.37501C3.89176 17.5 3.50001 17.1082 3.50001 16.625Z" fill="#005151"/>
</svg>
