<svg width="48" height="56" viewBox="0 0 48 56" fill="none" xmlns="http://www.w3.org/2000/svg">
<rect x="8" y="8" width="40" height="40" rx="9.6" fill="#F5F5F5"/>
<path d="M30.6667 29.3334C29.9303 29.3334 29.3334 29.9303 29.3334 30.6667V34.6667C29.3334 35.4031 29.9303 36 30.6667 36H34.6667C35.4031 36 36 35.4031 36 34.6667V30.6667C36 29.9303 35.4031 29.3334 34.6667 29.3334H30.6667Z" fill="#0E3B35"/>
<path fill-rule="evenodd" clip-rule="evenodd" d="M36 16C36 15.2636 35.4031 14.6667 34.6667 14.6667C33.9303 14.6667 33.3334 15.2636 33.3334 16V17.3334H22.6667V16C22.6667 15.2636 22.0697 14.6667 21.3334 14.6667C20.597 14.6667 20 15.2636 20 16V17.3334H18.6667C16.4575 17.3334 14.6667 19.1242 14.6667 21.3334V37.3334C14.6667 39.5425 16.4575 41.3334 18.6667 41.3334H37.3334C39.5425 41.3334 41.3334 39.5425 41.3334 37.3334V21.3334C41.3334 19.1242 39.5425 17.3334 37.3334 17.3334H36V16ZM18.6667 20C17.9303 20 17.3334 20.597 17.3334 21.3334V22.6667H38.6667V21.3334C38.6667 20.597 38.0697 20 37.3334 20H18.6667ZM17.3334 37.3334V25.3334H38.6667V37.3334C38.6667 38.0697 38.0697 38.6667 37.3334 38.6667H18.6667C17.9303 38.6667 17.3334 38.0697 17.3334 37.3334Z" fill="#0E3B35"/>
</svg>
