<svg width="61" height="24" viewBox="0 0 61 24" fill="none" xmlns="http://www.w3.org/2000/svg">
<g clip-path="url(#clip0_0_3457)">
<path d="M5.05762 13.8711C5.05778 17.7771 7.27122 19.335 10.0654 19.335C12.8595 19.3349 15.0721 17.777 15.0723 13.8711L15.0742 13.8721V0.421875H20.1338V13.8721C20.1338 20.0028 15.6549 23.96 10.0664 23.96C4.47801 23.9598 0 20.0027 0 13.8721V0.421875H5.05762V13.8711ZM52.0254 0C55.5826 1.79187e-05 58.681 1.25335 60.8818 3.46094L57.6719 6.72656C55.9912 5.34234 54.1988 4.62412 52.2031 4.62402C47.8825 4.62402 45.2685 7.64484 45.2685 11.9795C45.2686 16.3142 48.0811 19.335 52.209 19.335C53.6725 19.3349 54.6743 19.0811 55.9346 18.6572H55.9355V11.9795H61V21.626C58.8924 23.1095 54.3073 23.959 51.9336 23.959C45.1551 23.959 40.2168 18.9626 40.2168 11.9795C40.2168 4.99645 45.1551 0 52.0254 0ZM23.7168 17.1318C23.7168 12.6844 29.1109 10.458 32.2646 13.6016L42.2324 23.5381H35.6738L28.7773 16.6631V23.5381H23.7187V17.1318H23.7168ZM28.7773 7.2959L35.6738 0.421875H42.2324L32.2666 10.3564V10.3574C29.1129 13.5013 23.7187 11.2757 23.7187 6.82812V0.421875H28.7773V7.2959Z" fill="#13352C"/>
</g>
<defs>
<clipPath id="clip0_0_3457">
<rect width="61" height="24" fill="white"/>
</clipPath>
</defs>
</svg>
